<svg width="188" height="108" viewBox="0 0 188 108" fill="none" xmlns="http://www.w3.org/2000/svg">
<g filter="url(#filter0_d)">
<path d="M59.3572 100C35.1947 100 15.6072 77.6143 15.6072 50C15.6072 22.3857 35.1947 0 59.3572 0C83.5197 0 103.107 22.3857 103.107 50C103.107 77.6143 83.5197 100 59.3572 100Z" fill="#FCCF00"/>
<path d="M15.6072 50C15.6072 24.4607 32.3661 3.40714 54 0.385714C52.2429 0.141071 50.4572 0 48.6429 0C24.4804 0 4.89287 22.3857 4.89287 50C4.89287 77.6143 24.4804 100 48.6429 100C50.4572 100 52.2429 99.8589 54 99.6143C32.3661 96.5929 15.6072 75.5393 15.6072 50Z" fill="#F4BF1A"/>
<path d="M59.5089 90.2214H59.3554C58.1054 90.2214 56.8464 90.1464 55.6143 90C54.6339 89.8821 53.9357 88.9946 54.0518 88.0143C54.1697 87.0339 55.0643 86.35 56.0375 86.4536C57.1304 86.5839 58.2464 86.65 59.3554 86.65C60.3429 86.65 61.2179 87.45 61.2179 88.4357C61.2179 89.4214 60.4982 90.2214 59.5089 90.2214ZM69.8929 88.2982C69.1714 88.2982 68.4911 87.8571 68.2214 87.141C67.8732 86.2178 68.3393 85.1875 69.2625 84.8411C70.2911 84.4536 71.3179 83.9982 72.3089 83.4893C73.1875 83.0357 74.2625 83.3839 74.7143 84.2625C75.1643 85.1393 74.8179 86.216 73.9393 86.666C72.8268 87.2375 71.6786 87.7446 70.5214 88.1821C70.3161 88.2607 70.1036 88.2982 69.8929 88.2982ZM45.7232 86.9339C45.4518 86.9339 45.175 86.8714 44.9161 86.7393C43.8179 86.1803 42.7304 85.5536 41.6857 84.8678C40.8607 84.3286 40.6304 83.2232 41.1697 82.3964C41.7125 81.5732 42.8161 81.341 43.6429 81.8803C44.5768 82.4928 45.55 83.0571 46.5322 83.5553C47.4107 84.0018 47.7625 85.0768 47.3161 85.9553C47.0018 86.5768 46.3732 86.9339 45.7232 86.9339ZM81.6339 80.5803C81.1804 80.5803 80.725 80.4071 80.3768 80.0625C79.6768 79.3678 79.6714 78.2375 80.3661 77.5375C81.1429 76.7553 81.8982 75.9125 82.6107 75.0339C83.2339 74.2696 84.3589 74.1536 85.1232 74.775C85.8875 75.3964 86.0054 76.5214 85.3822 77.2875C84.5947 78.2553 83.7607 79.1857 82.9018 80.0518C82.5518 80.4035 82.0911 80.5803 81.6339 80.5803ZM34.8161 78.066C34.3 78.066 33.7875 77.8428 33.4339 77.4143C32.6589 76.4678 31.9143 75.4678 31.2232 74.441C30.6714 73.6232 30.8875 72.5125 31.7054 71.9607C32.5214 71.4089 33.6322 71.6232 34.1839 72.4428C34.8143 73.3786 35.4911 74.2893 36.1964 75.1482C36.8214 75.9107 36.7107 77.0357 35.9482 77.6625C35.6179 77.9339 35.2143 78.066 34.8161 78.066ZM89.4839 68.8928C89.2447 68.8928 89.0036 68.8446 88.7714 68.7446C87.8661 68.35 87.4536 67.2982 87.8464 66.3928C88.2946 65.3678 88.7036 64.3036 89.0625 63.2339C89.3768 62.3018 90.3893 61.7964 91.325 62.1107C92.2589 62.4268 92.7625 63.4375 92.4482 64.3732C92.0554 65.5393 91.6089 66.7 91.1214 67.8196C90.8268 68.4911 90.1696 68.8928 89.4839 68.8928ZM28.0089 65.7375C27.2661 65.7375 26.5714 65.2678 26.3179 64.5268C25.9232 63.3696 25.5732 62.1786 25.2768 60.9857C25.0375 60.0286 25.6197 59.0607 26.5768 58.8232C27.5304 58.5803 28.5036 59.1661 28.7411 60.1232C29.0143 61.2178 29.3357 62.3125 29.6982 63.3732C30.0161 64.3071 29.5179 65.3214 28.5857 65.6393C28.3964 65.7053 28.2 65.7375 28.0089 65.7375ZM92.8571 55.2071C92.8107 55.2071 92.7643 55.2053 92.7179 55.2018C91.7339 55.125 91 54.2661 91.075 53.2821C91.1589 52.2 91.2018 51.0946 91.2018 50C91.2018 49.0143 92.0018 48.1571 92.9875 48.1571C93.9732 48.1571 94.7732 48.8982 94.7732 49.8839V50C94.7732 51.1875 94.7268 52.3839 94.6357 53.5589C94.5643 54.4946 93.7804 55.2071 92.8571 55.2071ZM25.725 51.8053C24.7393 51.8053 23.9393 51.025 23.9393 50.0393V50C23.9393 48.7821 23.9875 47.5571 24.0822 46.3625C24.1607 45.3803 25.0161 44.6518 26.0036 44.7232C26.9875 44.8018 27.7214 45.6625 27.6429 46.6446C27.5554 47.7482 27.5107 48.8768 27.5107 50C27.5107 50.9857 26.7107 51.8053 25.725 51.8053ZM91.6822 41.1571C90.8839 41.1571 90.1572 40.6178 89.9536 39.8089C89.6768 38.7107 89.3536 37.6178 88.9893 36.5571C88.6697 35.625 89.1679 34.6089 90.1 34.2893C91.0339 33.9661 92.05 34.4661 92.3679 35.4C92.7643 36.5536 93.1161 37.7428 93.4161 38.9339C93.6572 39.8911 93.0768 40.8607 92.1214 41.1018C91.9768 41.1411 91.8304 41.1571 91.6822 41.1571ZM27.9857 37.9125C27.7947 37.9125 27.6018 37.8803 27.4107 37.8161C26.4768 37.5 25.9768 36.4857 26.2929 35.5518C26.6875 34.3911 27.1357 33.2321 27.6268 32.1089C28.0232 31.2036 29.0732 30.7946 29.9786 31.1875C30.8822 31.5821 31.2947 32.6357 30.9 33.5393C30.4482 34.5696 30.0375 35.6339 29.6768 36.6982C29.4214 37.4428 28.7304 37.9125 27.9857 37.9125ZM85.9679 28.2821C85.3947 28.2821 84.8339 28.0071 84.4875 27.4964C83.8554 26.5643 83.1768 25.6553 82.4697 24.7964C81.8429 24.0357 81.9518 22.9089 82.7125 22.2821C83.4732 21.6553 84.6 21.7643 85.2268 22.525C86.0036 23.4696 86.75 24.4678 87.4447 25.4946C87.9982 26.3107 87.7839 27.4214 86.9679 27.975C86.6607 28.1821 86.3143 28.2821 85.9679 28.2821ZM34.7643 25.5661C34.3679 25.5661 33.9679 25.4339 33.6357 25.1625C32.8714 24.5393 32.7589 23.4143 33.3839 22.65C34.1714 21.6857 35.0072 20.7571 35.8679 19.8911C36.5643 19.1946 37.6947 19.1893 38.3929 19.8839C39.0929 20.5803 39.0964 21.7089 38.4018 22.4089C37.6232 23.1928 36.8643 24.0339 36.1482 24.9107C35.7982 25.3428 35.2839 25.5661 34.7643 25.5661ZM75.9822 18.3696C75.6482 18.3696 75.3107 18.2768 75.0107 18.0803C74.0768 17.4714 73.1018 16.9107 72.1143 16.4125C71.2357 15.9678 70.8822 14.8946 71.3268 14.0143C71.7714 13.1375 72.8429 12.7786 73.725 13.225C74.8286 13.7803 75.9161 14.4071 76.9589 15.0875C77.7857 15.6268 78.0196 16.7339 77.4804 17.5589C77.1375 18.0857 76.5679 18.3696 75.9822 18.3696ZM45.6589 16.6732C45.0089 16.6732 44.3822 16.3178 44.0661 15.6982C43.6179 14.8196 43.9679 13.7446 44.8464 13.2964C45.9589 12.7304 47.1089 12.2214 48.2679 11.7893C49.1893 11.4429 50.2197 11.9107 50.5661 12.8357C50.9107 13.7589 50.4429 14.7875 49.5179 15.1339C48.4857 15.5196 47.4589 15.9714 46.4661 16.4786C46.2089 16.6107 45.9304 16.6732 45.6589 16.6732ZM62.8125 13.55C62.7429 13.55 62.6732 13.5464 62.6036 13.5375C61.5286 13.4125 60.4357 13.35 59.3554 13.35C58.3697 13.35 57.5322 12.55 57.5322 11.5643C57.5322 10.5786 58.2947 9.77856 59.2804 9.77856H59.3554C60.5732 9.77856 61.8054 9.84999 63.0161 9.99106C63.9947 10.1036 64.6982 10.9893 64.5839 11.9696C64.4804 12.8803 63.7054 13.55 62.8125 13.55Z" fill="#F4BF1A"/>
<path d="M15.6036 51.7856H4.89287C4.92858 52.9874 4.99644 54.1785 5.10537 55.3571H15.825C15.7143 54.1785 15.6411 52.9874 15.6036 51.7856Z" fill="#DCA815"/>
<path d="M16.0125 42.8572H5.30538C5.15716 44.034 5.05002 45.2268 4.97681 46.4286H15.6893C15.7643 45.2268 15.8643 44.034 16.0125 42.8572Z" fill="#DCA815"/>
<path d="M16.5857 60.7144H5.86966C6.1018 61.9215 6.36966 63.1126 6.67502 64.2858H17.3875C17.0839 63.1126 16.8179 61.9215 16.5857 60.7144Z" fill="#DCA815"/>
<path d="M19.0839 69.6428H8.36252C8.81788 70.8607 9.32145 72.0482 9.85716 73.2142H20.5732C20.0375 72.05 19.5393 70.8589 19.0839 69.6428Z" fill="#DCA815"/>
<path d="M17.8786 33.9285H7.17681C6.82859 35.1017 6.50359 36.2892 6.23216 37.4999H16.9589C17.2304 36.2928 17.5322 35.0981 17.8786 33.9285Z" fill="#DCA815"/>
<path d="M21.4357 25H10.7214C10.1322 26.1625 9.5768 27.3518 9.06966 28.5714H19.7911C20.2982 27.3536 20.8464 26.1625 21.4357 25Z" fill="#DCA815"/>
<path d="M28.7232 14.2856H17.9964C16.9804 15.4214 16.0143 16.6124 15.1 17.8571H25.8232C26.7393 16.6124 27.7072 15.4214 28.7232 14.2856Z" fill="#DCA815"/>
<path d="M39.6429 5.35718H28.9054C27.0804 6.41075 25.3304 7.60361 23.6625 8.92861H34.3929C36.0625 7.60361 37.8161 6.41075 39.6429 5.35718Z" fill="#DCA815"/>
<path d="M24.5696 80.3572H13.85C14.6786 81.5947 15.5536 82.7858 16.4786 83.9286H27.2054C26.2804 82.7858 25.4 81.5947 24.5696 80.3572Z" fill="#DCA815"/>
<path d="M21.5572 89.2856C22.9911 90.5767 24.4929 91.7749 26.0643 92.8571H36.8036C35.225 91.7731 33.7072 90.5821 32.2679 89.2856H21.5572Z" fill="#DCA815"/>
<path d="M98.3572 100C74.1947 100 54.6072 77.6143 54.6072 50C54.6072 22.3857 74.1947 0 98.3572 0C122.52 0 142.107 22.3857 142.107 50C142.107 77.6143 122.52 100 98.3572 100Z" fill="#FCCF00"/>
<path d="M54.6072 50C54.6072 24.4607 71.3661 3.40714 93 0.385714C91.2429 0.141071 89.4572 0 87.6429 0C63.4804 0 43.8929 22.3857 43.8929 50C43.8929 77.6143 63.4804 100 87.6429 100C89.4572 100 91.2429 99.8589 93 99.6143C71.3661 96.5929 54.6072 75.5393 54.6072 50Z" fill="#F4BF1A"/>
<path d="M98.5089 90.2214H98.3554C97.1054 90.2214 95.8464 90.1464 94.6143 90C93.6339 89.8821 92.9357 88.9946 93.0518 88.0143C93.1697 87.0339 94.0643 86.35 95.0375 86.4536C96.1304 86.5839 97.2464 86.65 98.3554 86.65C99.3429 86.65 100.218 87.45 100.218 88.4357C100.218 89.4214 99.4982 90.2214 98.5089 90.2214ZM108.893 88.2982C108.171 88.2982 107.491 87.8571 107.221 87.141C106.873 86.2178 107.339 85.1875 108.263 84.8411C109.291 84.4536 110.318 83.9982 111.309 83.4893C112.188 83.0357 113.263 83.3839 113.714 84.2625C114.164 85.1393 113.818 86.216 112.939 86.666C111.827 87.2375 110.679 87.7446 109.521 88.1821C109.316 88.2607 109.104 88.2982 108.893 88.2982ZM84.7232 86.9339C84.4518 86.9339 84.175 86.8714 83.9161 86.7393C82.8179 86.1803 81.7304 85.5536 80.6857 84.8678C79.8607 84.3286 79.6304 83.2232 80.1697 82.3964C80.7125 81.5732 81.8161 81.341 82.6429 81.8803C83.5768 82.4928 84.55 83.0571 85.5322 83.5553C86.4107 84.0018 86.7625 85.0768 86.3161 85.9553C86.0018 86.5768 85.3732 86.9339 84.7232 86.9339ZM120.634 80.5803C120.18 80.5803 119.725 80.4071 119.377 80.0625C118.677 79.3678 118.671 78.2375 119.366 77.5375C120.143 76.7553 120.898 75.9125 121.611 75.0339C122.234 74.2696 123.359 74.1536 124.123 74.775C124.888 75.3964 125.005 76.5214 124.382 77.2875C123.595 78.2553 122.761 79.1857 121.902 80.0518C121.552 80.4035 121.091 80.5803 120.634 80.5803ZM73.8161 78.066C73.3 78.066 72.7875 77.8428 72.4339 77.4143C71.6589 76.4678 70.9143 75.4678 70.2232 74.441C69.6714 73.6232 69.8875 72.5125 70.7054 71.9607C71.5214 71.4089 72.6322 71.6232 73.1839 72.4428C73.8143 73.3786 74.4911 74.2893 75.1964 75.1482C75.8214 75.9107 75.7107 77.0357 74.9482 77.6625C74.6179 77.9339 74.2143 78.066 73.8161 78.066ZM128.484 68.8928C128.245 68.8928 128.004 68.8446 127.771 68.7446C126.866 68.35 126.454 67.2982 126.846 66.3928C127.295 65.3678 127.704 64.3036 128.063 63.2339C128.377 62.3018 129.389 61.7964 130.325 62.1107C131.259 62.4268 131.763 63.4375 131.448 64.3732C131.055 65.5393 130.609 66.7 130.121 67.8196C129.827 68.4911 129.17 68.8928 128.484 68.8928ZM67.0089 65.7375C66.2661 65.7375 65.5714 65.2678 65.3179 64.5268C64.9232 63.3696 64.5732 62.1786 64.2768 60.9857C64.0375 60.0286 64.6197 59.0607 65.5768 58.8232C66.5304 58.5803 67.5036 59.1661 67.7411 60.1232C68.0143 61.2178 68.3357 62.3125 68.6982 63.3732C69.0161 64.3071 68.5179 65.3214 67.5857 65.6393C67.3964 65.7053 67.2 65.7375 67.0089 65.7375ZM131.857 55.2071C131.811 55.2071 131.764 55.2053 131.718 55.2018C130.734 55.125 130 54.2661 130.075 53.2821C130.159 52.2 130.202 51.0946 130.202 50C130.202 49.0143 131.002 48.1571 131.988 48.1571C132.973 48.1571 133.773 48.8982 133.773 49.8839V50C133.773 51.1875 133.727 52.3839 133.636 53.5589C133.564 54.4946 132.78 55.2071 131.857 55.2071ZM64.725 51.8053C63.7393 51.8053 62.9393 51.025 62.9393 50.0393V50C62.9393 48.7821 62.9875 47.5571 63.0822 46.3625C63.1607 45.3803 64.0161 44.6518 65.0036 44.7232C65.9875 44.8018 66.7214 45.6625 66.6429 46.6446C66.5554 47.7482 66.5107 48.8768 66.5107 50C66.5107 50.9857 65.7107 51.8053 64.725 51.8053ZM130.682 41.1571C129.884 41.1571 129.157 40.6178 128.954 39.8089C128.677 38.7107 128.354 37.6178 127.989 36.5571C127.67 35.625 128.168 34.6089 129.1 34.2893C130.034 33.9661 131.05 34.4661 131.368 35.4C131.764 36.5536 132.116 37.7428 132.416 38.9339C132.657 39.8911 132.077 40.8607 131.121 41.1018C130.977 41.1411 130.83 41.1571 130.682 41.1571ZM66.9857 37.9125C66.7947 37.9125 66.6018 37.8803 66.4107 37.8161C65.4768 37.5 64.9768 36.4857 65.2929 35.5518C65.6875 34.3911 66.1357 33.2321 66.6268 32.1089C67.0232 31.2036 68.0732 30.7946 68.9786 31.1875C69.8822 31.5821 70.2947 32.6357 69.9 33.5393C69.4482 34.5696 69.0375 35.6339 68.6768 36.6982C68.4214 37.4428 67.7304 37.9125 66.9857 37.9125ZM124.968 28.2821C124.395 28.2821 123.834 28.0071 123.488 27.4964C122.855 26.5643 122.177 25.6553 121.47 24.7964C120.843 24.0357 120.952 22.9089 121.713 22.2821C122.473 21.6553 123.6 21.7643 124.227 22.525C125.004 23.4696 125.75 24.4678 126.445 25.4946C126.998 26.3107 126.784 27.4214 125.968 27.975C125.661 28.1821 125.314 28.2821 124.968 28.2821ZM73.7643 25.5661C73.3679 25.5661 72.9679 25.4339 72.6357 25.1625C71.8714 24.5393 71.7589 23.4143 72.3839 22.65C73.1714 21.6857 74.0072 20.7571 74.8679 19.8911C75.5643 19.1946 76.6947 19.1893 77.3929 19.8839C78.0929 20.5803 78.0964 21.7089 77.4018 22.4089C76.6232 23.1928 75.8643 24.0339 75.1482 24.9107C74.7982 25.3428 74.2839 25.5661 73.7643 25.5661ZM114.982 18.3696C114.648 18.3696 114.311 18.2768 114.011 18.0803C113.077 17.4714 112.102 16.9107 111.114 16.4125C110.236 15.9678 109.882 14.8946 110.327 14.0143C110.771 13.1375 111.843 12.7786 112.725 13.225C113.829 13.7803 114.916 14.4071 115.959 15.0875C116.786 15.6268 117.02 16.7339 116.48 17.5589C116.138 18.0857 115.568 18.3696 114.982 18.3696ZM84.6589 16.6732C84.0089 16.6732 83.3822 16.3178 83.0661 15.6982C82.6179 14.8196 82.9679 13.7446 83.8464 13.2964C84.9589 12.7304 86.1089 12.2214 87.2679 11.7893C88.1893 11.4429 89.2197 11.9107 89.5661 12.8357C89.9107 13.7589 89.4429 14.7875 88.5179 15.1339C87.4857 15.5196 86.4589 15.9714 85.4661 16.4786C85.2089 16.6107 84.9304 16.6732 84.6589 16.6732ZM101.813 13.55C101.743 13.55 101.673 13.5464 101.604 13.5375C100.529 13.4125 99.4357 13.35 98.3554 13.35C97.3697 13.35 96.5322 12.55 96.5322 11.5643C96.5322 10.5786 97.2947 9.77856 98.2804 9.77856H98.3554C99.5732 9.77856 100.805 9.84999 102.016 9.99106C102.995 10.1036 103.698 10.9893 103.584 11.9696C103.48 12.8803 102.705 13.55 101.813 13.55Z" fill="#F4BF1A"/>
<path d="M54.6036 51.7856H43.8929C43.9286 52.9874 43.9964 54.1785 44.1054 55.3571H54.825C54.7143 54.1785 54.6411 52.9874 54.6036 51.7856Z" fill="#DCA815"/>
<path d="M55.0125 42.8572H44.3054C44.1572 44.034 44.05 45.2268 43.9768 46.4286H54.6893C54.7643 45.2268 54.8643 44.034 55.0125 42.8572Z" fill="#DCA815"/>
<path d="M55.5857 60.7144H44.8697C45.1018 61.9215 45.3697 63.1126 45.675 64.2858H56.3875C56.0839 63.1126 55.8179 61.9215 55.5857 60.7144Z" fill="#DCA815"/>
<path d="M58.0839 69.6428H47.3625C47.8179 70.8607 48.3214 72.0482 48.8572 73.2142H59.5732C59.0375 72.05 58.5393 70.8589 58.0839 69.6428Z" fill="#DCA815"/>
<path d="M56.8786 33.9285H46.1768C45.8286 35.1017 45.5036 36.2892 45.2322 37.4999H55.9589C56.2304 36.2928 56.5322 35.0981 56.8786 33.9285Z" fill="#DCA815"/>
<path d="M60.4357 25H49.7214C49.1322 26.1625 48.5768 27.3518 48.0697 28.5714H58.7911C59.2982 27.3536 59.8464 26.1625 60.4357 25Z" fill="#DCA815"/>
<path d="M67.7232 14.2856H56.9964C55.9804 15.4214 55.0143 16.6124 54.1 17.8571H64.8232C65.7393 16.6124 66.7072 15.4214 67.7232 14.2856Z" fill="#DCA815"/>
<path d="M78.6429 5.35718H67.9054C66.0804 6.41075 64.3304 7.60361 62.6625 8.92861H73.3929C75.0625 7.60361 76.8161 6.41075 78.6429 5.35718Z" fill="#DCA815"/>
<path d="M63.5696 80.3572H52.85C53.6786 81.5947 54.5536 82.7858 55.4786 83.9286H66.2054C65.2804 82.7858 64.4 81.5947 63.5696 80.3572Z" fill="#DCA815"/>
<path d="M60.5572 89.2856C61.9911 90.5767 63.4929 91.7749 65.0643 92.8571H75.8036C74.225 91.7731 72.7072 90.5821 71.2679 89.2856H60.5572Z" fill="#DCA815"/>
<path d="M139.357 100C115.195 100 95.6072 77.6143 95.6072 50C95.6072 22.3857 115.195 0 139.357 0C163.52 0 183.107 22.3857 183.107 50C183.107 77.6143 163.52 100 139.357 100Z" fill="#FCCF00"/>
<path d="M95.6072 50C95.6072 24.4607 112.366 3.40714 134 0.385714C132.243 0.141071 130.457 0 128.643 0C104.48 0 84.8929 22.3857 84.8929 50C84.8929 77.6143 104.48 100 128.643 100C130.457 100 132.243 99.8589 134 99.6143C112.366 96.5929 95.6072 75.5393 95.6072 50Z" fill="#F4BF1A"/>
<path d="M139.509 90.2214H139.355C138.105 90.2214 136.846 90.1464 135.614 90C134.634 89.8821 133.936 88.9946 134.052 88.0143C134.17 87.0339 135.064 86.35 136.038 86.4536C137.13 86.5839 138.246 86.65 139.355 86.65C140.343 86.65 141.218 87.45 141.218 88.4357C141.218 89.4214 140.498 90.2214 139.509 90.2214ZM149.893 88.2982C149.171 88.2982 148.491 87.8571 148.221 87.141C147.873 86.2178 148.339 85.1875 149.263 84.8411C150.291 84.4536 151.318 83.9982 152.309 83.4893C153.188 83.0357 154.263 83.3839 154.714 84.2625C155.164 85.1393 154.818 86.216 153.939 86.666C152.827 87.2375 151.679 87.7446 150.521 88.1821C150.316 88.2607 150.104 88.2982 149.893 88.2982ZM125.723 86.9339C125.452 86.9339 125.175 86.8714 124.916 86.7393C123.818 86.1803 122.73 85.5536 121.686 84.8678C120.861 84.3286 120.63 83.2232 121.17 82.3964C121.713 81.5732 122.816 81.341 123.643 81.8803C124.577 82.4928 125.55 83.0571 126.532 83.5553C127.411 84.0018 127.763 85.0768 127.316 85.9553C127.002 86.5768 126.373 86.9339 125.723 86.9339ZM161.634 80.5803C161.18 80.5803 160.725 80.4071 160.377 80.0625C159.677 79.3678 159.671 78.2375 160.366 77.5375C161.143 76.7553 161.898 75.9125 162.611 75.0339C163.234 74.2696 164.359 74.1536 165.123 74.775C165.888 75.3964 166.005 76.5214 165.382 77.2875C164.595 78.2553 163.761 79.1857 162.902 80.0518C162.552 80.4035 162.091 80.5803 161.634 80.5803ZM114.816 78.066C114.3 78.066 113.788 77.8428 113.434 77.4143C112.659 76.4678 111.914 75.4678 111.223 74.441C110.671 73.6232 110.888 72.5125 111.705 71.9607C112.521 71.4089 113.632 71.6232 114.184 72.4428C114.814 73.3786 115.491 74.2893 116.196 75.1482C116.821 75.9107 116.711 77.0357 115.948 77.6625C115.618 77.9339 115.214 78.066 114.816 78.066ZM169.484 68.8928C169.245 68.8928 169.004 68.8446 168.771 68.7446C167.866 68.35 167.454 67.2982 167.846 66.3928C168.295 65.3678 168.704 64.3036 169.063 63.2339C169.377 62.3018 170.389 61.7964 171.325 62.1107C172.259 62.4268 172.763 63.4375 172.448 64.3732C172.055 65.5393 171.609 66.7 171.121 67.8196C170.827 68.4911 170.17 68.8928 169.484 68.8928ZM108.009 65.7375C107.266 65.7375 106.571 65.2678 106.318 64.5268C105.923 63.3696 105.573 62.1786 105.277 60.9857C105.038 60.0286 105.62 59.0607 106.577 58.8232C107.53 58.5803 108.504 59.1661 108.741 60.1232C109.014 61.2178 109.336 62.3125 109.698 63.3732C110.016 64.3071 109.518 65.3214 108.586 65.6393C108.396 65.7053 108.2 65.7375 108.009 65.7375ZM172.857 55.2071C172.811 55.2071 172.764 55.2053 172.718 55.2018C171.734 55.125 171 54.2661 171.075 53.2821C171.159 52.2 171.202 51.0946 171.202 50C171.202 49.0143 172.002 48.1571 172.988 48.1571C173.973 48.1571 174.773 48.8982 174.773 49.8839V50C174.773 51.1875 174.727 52.3839 174.636 53.5589C174.564 54.4946 173.78 55.2071 172.857 55.2071ZM105.725 51.8053C104.739 51.8053 103.939 51.025 103.939 50.0393V50C103.939 48.7821 103.988 47.5571 104.082 46.3625C104.161 45.3803 105.016 44.6518 106.004 44.7232C106.988 44.8018 107.721 45.6625 107.643 46.6446C107.555 47.7482 107.511 48.8768 107.511 50C107.511 50.9857 106.711 51.8053 105.725 51.8053ZM171.682 41.1571C170.884 41.1571 170.157 40.6178 169.954 39.8089C169.677 38.7107 169.354 37.6178 168.989 36.5571C168.67 35.625 169.168 34.6089 170.1 34.2893C171.034 33.9661 172.05 34.4661 172.368 35.4C172.764 36.5536 173.116 37.7428 173.416 38.9339C173.657 39.8911 173.077 40.8607 172.121 41.1018C171.977 41.1411 171.83 41.1571 171.682 41.1571ZM107.986 37.9125C107.795 37.9125 107.602 37.8803 107.411 37.8161C106.477 37.5 105.977 36.4857 106.293 35.5518C106.688 34.3911 107.136 33.2321 107.627 32.1089C108.023 31.2036 109.073 30.7946 109.979 31.1875C110.882 31.5821 111.295 32.6357 110.9 33.5393C110.448 34.5696 110.038 35.6339 109.677 36.6982C109.421 37.4428 108.73 37.9125 107.986 37.9125ZM165.968 28.2821C165.395 28.2821 164.834 28.0071 164.488 27.4964C163.855 26.5643 163.177 25.6553 162.47 24.7964C161.843 24.0357 161.952 22.9089 162.713 22.2821C163.473 21.6553 164.6 21.7643 165.227 22.525C166.004 23.4696 166.75 24.4678 167.445 25.4946C167.998 26.3107 167.784 27.4214 166.968 27.975C166.661 28.1821 166.314 28.2821 165.968 28.2821ZM114.764 25.5661C114.368 25.5661 113.968 25.4339 113.636 25.1625C112.871 24.5393 112.759 23.4143 113.384 22.65C114.171 21.6857 115.007 20.7571 115.868 19.8911C116.564 19.1946 117.695 19.1893 118.393 19.8839C119.093 20.5803 119.096 21.7089 118.402 22.4089C117.623 23.1928 116.864 24.0339 116.148 24.9107C115.798 25.3428 115.284 25.5661 114.764 25.5661ZM155.982 18.3696C155.648 18.3696 155.311 18.2768 155.011 18.0803C154.077 17.4714 153.102 16.9107 152.114 16.4125C151.236 15.9678 150.882 14.8946 151.327 14.0143C151.771 13.1375 152.843 12.7786 153.725 13.225C154.829 13.7803 155.916 14.4071 156.959 15.0875C157.786 15.6268 158.02 16.7339 157.48 17.5589C157.138 18.0857 156.568 18.3696 155.982 18.3696ZM125.659 16.6732C125.009 16.6732 124.382 16.3178 124.066 15.6982C123.618 14.8196 123.968 13.7446 124.846 13.2964C125.959 12.7304 127.109 12.2214 128.268 11.7893C129.189 11.4429 130.22 11.9107 130.566 12.8357C130.911 13.7589 130.443 14.7875 129.518 15.1339C128.486 15.5196 127.459 15.9714 126.466 16.4786C126.209 16.6107 125.93 16.6732 125.659 16.6732ZM142.813 13.55C142.743 13.55 142.673 13.5464 142.604 13.5375C141.529 13.4125 140.436 13.35 139.355 13.35C138.37 13.35 137.532 12.55 137.532 11.5643C137.532 10.5786 138.295 9.77856 139.28 9.77856H139.355C140.573 9.77856 141.805 9.84999 143.016 9.99106C143.995 10.1036 144.698 10.9893 144.584 11.9696C144.48 12.8803 143.705 13.55 142.813 13.55Z" fill="#F4BF1A"/>
<path d="M95.6036 51.7856H84.8929C84.9286 52.9874 84.9964 54.1785 85.1054 55.3571H95.825C95.7143 54.1785 95.6411 52.9874 95.6036 51.7856Z" fill="#DCA815"/>
<path d="M96.0125 42.8572H85.3054C85.1572 44.034 85.05 45.2268 84.9768 46.4286H95.6893C95.7643 45.2268 95.8643 44.034 96.0125 42.8572Z" fill="#DCA815"/>
<path d="M96.5857 60.7144H85.8697C86.1018 61.9215 86.3697 63.1126 86.675 64.2858H97.3875C97.0839 63.1126 96.8179 61.9215 96.5857 60.7144Z" fill="#DCA815"/>
<path d="M99.0839 69.6428H88.3625C88.8179 70.8607 89.3214 72.0482 89.8572 73.2142H100.573C100.038 72.05 99.5393 70.8589 99.0839 69.6428Z" fill="#DCA815"/>
<path d="M97.8786 33.9285H87.1768C86.8286 35.1017 86.5036 36.2892 86.2322 37.4999H96.9589C97.2304 36.2928 97.5322 35.0981 97.8786 33.9285Z" fill="#DCA815"/>
<path d="M101.436 25H90.7214C90.1322 26.1625 89.5768 27.3518 89.0697 28.5714H99.7911C100.298 27.3536 100.846 26.1625 101.436 25Z" fill="#DCA815"/>
<path d="M108.723 14.2856H97.9964C96.9804 15.4214 96.0143 16.6124 95.1 17.8571H105.823C106.739 16.6124 107.707 15.4214 108.723 14.2856Z" fill="#DCA815"/>
<path d="M119.643 5.35718H108.905C107.08 6.41075 105.33 7.60361 103.663 8.92861H114.393C116.063 7.60361 117.816 6.41075 119.643 5.35718Z" fill="#DCA815"/>
<path d="M104.57 80.3572H93.85C94.6786 81.5947 95.5536 82.7858 96.4786 83.9286H107.205C106.28 82.7858 105.4 81.5947 104.57 80.3572Z" fill="#DCA815"/>
<path d="M101.557 89.2856C102.991 90.5767 104.493 91.7749 106.064 92.8571H116.804C115.225 91.7731 113.707 90.5821 112.268 89.2856H101.557Z" fill="#DCA815"/>
</g>
<defs>
<filter id="filter0_d" x="0" y="0" width="188" height="108" filterUnits="userSpaceOnUse" color-interpolation-filters="sRGB">
<feFlood flood-opacity="0" result="BackgroundImageFix"/>
<feColorMatrix in="SourceAlpha" type="matrix" values="0 0 0 0 0 0 0 0 0 0 0 0 0 0 0 0 0 0 127 0"/>
<feOffset dy="4"/>
<feGaussianBlur stdDeviation="2"/>
<feColorMatrix type="matrix" values="0 0 0 0 0 0 0 0 0 0 0 0 0 0 0 0 0 0 0.25 0"/>
<feBlend mode="normal" in2="BackgroundImageFix" result="effect1_dropShadow"/>
<feBlend mode="normal" in="SourceGraphic" in2="effect1_dropShadow" result="shape"/>
</filter>
</defs>
</svg>
