<svg width="161" height="118" viewBox="0 0 161 118" fill="none" xmlns="http://www.w3.org/2000/svg">
<line x1="5.73585" y1="55.5755" x2="50.7358" y2="27.5755" stroke="#FB4F03"/>
<line x1="5.73585" y1="55.5755" x2="50.7358" y2="27.5755" stroke="#FB4F03"/>
<line x1="5.73585" y1="55.5755" x2="50.7358" y2="27.5755" stroke="#FB4F03"/>
<line x1="50.7764" y1="99.5528" x2="94.7764" y2="77.5528" stroke="#FB4F03"/>
<line x1="130.657" y1="112.364" x2="94.6567" y2="78.3635" stroke="#FB4F03"/>
<line x1="130.561" y1="111.761" x2="154.561" y2="67.7606" stroke="#FB4F03"/>
<line x1="155.082" y1="67.4932" x2="95.0822" y2="77.4932" stroke="#FB4F03"/>
<line x1="154.74" y1="67.4273" x2="103.74" y2="36.4273" stroke="#FB4F03"/>
<line x1="113.479" y1="6.14367" x2="104.479" y2="36.1437" stroke="#FB4F03"/>
<line x1="154.582" y1="67.2742" x2="114.582" y2="6.27418" stroke="#FB4F03"/>
<line x1="94.5111" y1="77.8952" x2="103.511" y2="35.8952" stroke="#FB4F03"/>
<line x1="51.0746" y1="27.5056" x2="104.075" y2="35.5056" stroke="#FB4F03"/>
<line x1="50.8328" y1="27.5288" x2="112.833" y2="5.52879" stroke="#FB4F03"/>
<line x1="130.926" y1="112.494" x2="50.9258" y2="100.494" stroke="#FB4F03"/>
<line x1="51.5" y1="28" x2="51.5" y2="100" stroke="#FB4F03"/>
<line x1="6.36168" y1="55.6548" x2="48.3617" y2="99.6548" stroke="#FB4F03"/>
<line x1="94.6246" y1="78.3303" x2="50.6246" y2="28.3303" stroke="#FB4F03"/>
<line x1="94.8291" y1="78.4699" x2="50.8291" y2="62.4699" stroke="#FB4F03"/>
<line x1="6.08752" y1="55.5077" x2="51.0875" y2="63.5077" stroke="#FB4F03"/>
<circle cx="6" cy="56" r="6" fill="#FB4F03"/>
<circle cx="51" cy="100" r="6" fill="#FB4F03"/>
<circle cx="155" cy="68" r="6" fill="#FB4F03"/>
<circle cx="104" cy="36" r="6" fill="#FB4F03"/>
<circle cx="113" cy="6" r="6" fill="#FB4F03"/>
<circle cx="51" cy="28" r="6" fill="#FB4F03"/>
<circle cx="95" cy="78" r="6" fill="#FB4F03"/>
<circle cx="51" cy="64" r="6" fill="#FB4F03"/>
<circle cx="131" cy="112" r="6" fill="#FB4F03"/>
</svg>
