<svg width="474" height="481" viewBox="0 0 474 481" fill="none" xmlns="http://www.w3.org/2000/svg">
<g filter="url(#filter0_d)">
<path d="M461.64 369.642C459.844 360.675 452.133 353.844 442.99 353.655C435.782 353.506 430.939 348.58 443.491 328.072C446.644 322.921 447.355 316.613 445.33 310.924C432.515 274.914 415.126 240.839 394.585 209.377C387.206 198.074 373.719 192.162 360.513 194.951C347.594 197.68 342.752 193.259 348.932 172.979C352.336 161.809 349.473 149.666 341.61 141.033C313.304 109.952 282.279 83.0138 250.679 61.2539C243.361 56.2145 233.559 56.3606 226.622 61.9112C216.783 69.7824 201.975 76.2793 192.906 55.009C191.082 50.7339 190.664 46.9125 191.322 43.4963C193.097 34.2941 188.021 25.0898 179.409 21.3918C135.377 2.48835 93.4278 -4.60108 59.5998 3.0037C36.3801 8.22202 15.2075 23.9284 9.4183 46.4146C-3.07358 94.9502 6.84152 140.798 30.8707 183.144C35.156 190.696 42.9964 195.672 51.6771 195.88C65.2954 196.206 66.1028 208.586 64.7718 217.884C63.7339 225.129 66.0452 232.453 70.9323 237.903C92.1337 261.547 117.15 283.779 144.151 304.427C152.818 311.054 164.707 310.776 173.431 304.224C187.688 293.517 205.343 301.074 200.947 325.984C199.215 335.803 203.531 345.69 212.003 350.945C244.888 371.339 278.427 389.506 309.942 405.184C316.236 408.314 323.705 407.41 329.279 403.126C343.871 391.913 349.398 406.308 351.441 416.674C352.58 422.452 356.448 427.314 361.819 429.73C423.563 457.509 468.339 472.738 468.339 472.738C470.867 437.463 468.311 402.941 461.64 369.642Z" fill="#015F4D"/>
</g>
<defs>
<filter id="filter0_d" x="0" y="0" width="473.297" height="480.738" filterUnits="userSpaceOnUse" color-interpolation-filters="sRGB">
<feFlood flood-opacity="0" result="BackgroundImageFix"/>
<feColorMatrix in="SourceAlpha" type="matrix" values="0 0 0 0 0 0 0 0 0 0 0 0 0 0 0 0 0 0 127 0"/>
<feOffset dy="4"/>
<feGaussianBlur stdDeviation="2"/>
<feColorMatrix type="matrix" values="0 0 0 0 0 0 0 0 0 0 0 0 0 0 0 0 0 0 0.25 0"/>
<feBlend mode="normal" in2="BackgroundImageFix" result="effect1_dropShadow"/>
<feBlend mode="normal" in="SourceGraphic" in2="effect1_dropShadow" result="shape"/>
</filter>
</defs>
</svg>
