<svg width="600" height="632" viewBox="0 0 600 632" fill="none" xmlns="http://www.w3.org/2000/svg">
<g filter="url(#filter0_d)">
<path d="M462.113 14.6758C450.602 17.5025 442.186 27.8695 442.452 39.7197C442.661 49.0634 436.554 55.61 409.295 40.5001C402.447 36.705 394.239 36.1369 386.985 39.0776C341.068 57.6845 297.912 82.1057 258.316 110.464C244.091 120.652 237.189 138.447 241.538 155.394C245.794 171.971 240.339 178.489 213.732 171.618C199.076 167.834 183.511 172.22 172.77 182.885C134.102 221.277 100.95 262.96 74.5363 305.097C68.4192 314.855 69.1559 327.541 76.7314 336.214C87.4742 348.516 96.715 367.33 69.6765 380.262C64.2422 382.862 59.3169 383.618 54.8562 382.956C42.8401 381.171 31.2041 388.259 26.8963 399.618C4.87617 457.696 -1.96122 512.416 9.77668 555.798C17.8315 585.576 39.354 612.117 68.797 618.358C132.348 631.824 191.167 616.423 244.663 582.939C254.203 576.968 260.21 566.537 259.994 555.283C259.655 537.63 275.642 535.892 287.757 537.097C297.198 538.036 306.554 534.634 313.338 528C342.772 499.224 370.165 465.585 395.396 429.466C403.494 417.873 402.469 402.492 393.498 391.56C378.835 373.696 387.636 350.409 420.14 354.711C432.951 356.406 445.514 350.264 451.847 339C476.42 295.275 498.072 250.827 516.614 209.138C520.316 200.814 518.728 191.192 512.87 184.212C497.533 165.942 515.866 157.98 529.175 154.756C536.594 152.958 542.675 147.677 545.504 140.587C578.028 59.0761 595.248 0.240591 595.248 0.240591C549.426 -1.06178 504.863 4.17693 462.113 14.6758Z" fill="#015F4D"/>
</g>
<defs>
<filter id="filter0_d" x="0.101807" y="0.0449219" width="599.146" height="631.171" filterUnits="userSpaceOnUse" color-interpolation-filters="sRGB">
<feFlood flood-opacity="0" result="BackgroundImageFix"/>
<feColorMatrix in="SourceAlpha" type="matrix" values="0 0 0 0 0 0 0 0 0 0 0 0 0 0 0 0 0 0 127 0"/>
<feOffset dy="4"/>
<feGaussianBlur stdDeviation="2"/>
<feColorMatrix type="matrix" values="0 0 0 0 0 0 0 0 0 0 0 0 0 0 0 0 0 0 0.25 0"/>
<feBlend mode="normal" in2="BackgroundImageFix" result="effect1_dropShadow"/>
<feBlend mode="normal" in="SourceGraphic" in2="effect1_dropShadow" result="shape"/>
</filter>
</defs>
</svg>
