<svg width="297" height="276" viewBox="0 0 297 276" fill="none" xmlns="http://www.w3.org/2000/svg">
<g filter="url(#filter0_d)">
<rect x="30" y="20" width="237" height="216" rx="16" fill="#005141"/>
</g>
<path d="M79.06 217.24C77.8333 217.24 76.7933 217.033 75.94 216.62C75.0867 216.193 74.36 215.647 73.76 214.98L75.76 212.96C76.7067 214.027 77.8733 214.56 79.26 214.56C80.0067 214.56 80.56 214.407 80.92 214.1C81.28 213.793 81.46 213.387 81.46 212.88C81.46 212.493 81.3533 212.173 81.14 211.92C80.9267 211.653 80.4933 211.473 79.84 211.38L78.46 211.2C76.98 211.013 75.8933 210.567 75.2 209.86C74.52 209.153 74.18 208.213 74.18 207.04C74.18 206.413 74.3 205.84 74.54 205.32C74.78 204.8 75.12 204.353 75.56 203.98C76.0133 203.607 76.56 203.32 77.2 203.12C77.8533 202.907 78.5933 202.8 79.42 202.8C80.4733 202.8 81.4 202.967 82.2 203.3C83 203.633 83.6867 204.12 84.26 204.76L82.24 206.8C81.9067 206.413 81.5 206.1 81.02 205.86C80.5533 205.607 79.96 205.48 79.24 205.48C78.56 205.48 78.0533 205.6 77.72 205.84C77.3867 206.08 77.22 206.413 77.22 206.84C77.22 207.32 77.3467 207.667 77.6 207.88C77.8667 208.093 78.2933 208.247 78.88 208.34L80.26 208.56C81.7 208.787 82.7667 209.233 83.46 209.9C84.1533 210.553 84.5 211.487 84.5 212.7C84.5 213.367 84.38 213.98 84.14 214.54C83.9 215.1 83.5467 215.58 83.08 215.98C82.6267 216.38 82.06 216.693 81.38 216.92C80.7 217.133 79.9267 217.24 79.06 217.24ZM92.6605 217.24C91.7138 217.24 90.8605 217.093 90.1005 216.8C89.3405 216.493 88.6938 216.047 88.1605 215.46C87.6271 214.86 87.2138 214.12 86.9205 213.24C86.6271 212.347 86.4805 211.307 86.4805 210.12C86.4805 208.947 86.6271 207.907 86.9205 207C87.2138 206.08 87.6271 205.313 88.1605 204.7C88.6938 204.073 89.3405 203.6 90.1005 203.28C90.8605 202.96 91.7138 202.8 92.6605 202.8C93.9538 202.8 95.0205 203.067 95.8605 203.6C96.7005 204.12 97.3738 204.947 97.8805 206.08L95.2605 207.44C95.0738 206.853 94.7805 206.387 94.3805 206.04C93.9938 205.68 93.4205 205.5 92.6605 205.5C91.7671 205.5 91.0471 205.793 90.5005 206.38C89.9671 206.953 89.7005 207.793 89.7005 208.9V211.14C89.7005 212.247 89.9671 213.093 90.5005 213.68C91.0471 214.253 91.7671 214.54 92.6605 214.54C93.4071 214.54 94.0005 214.34 94.4405 213.94C94.8938 213.527 95.2271 213.033 95.4405 212.46L97.9205 213.9C97.4005 214.967 96.7138 215.793 95.8605 216.38C95.0205 216.953 93.9538 217.24 92.6605 217.24ZM108.492 217L107.492 213.68H102.832L101.832 217H98.7516L103.352 203.04H107.112L111.652 217H108.492ZM105.192 205.8H105.092L103.552 211.1H106.752L105.192 205.8ZM124.023 207.84H123.963L122.943 209.88L120.223 214.82L117.563 209.9L116.503 207.7H116.443V217H113.583V203.04H116.803L120.223 209.58H120.263L123.643 203.04H126.883V217H124.023V207.84ZM140.296 217.24C139.376 217.24 138.536 217.087 137.776 216.78C137.016 216.473 136.37 216.02 135.836 215.42C135.303 214.807 134.89 214.053 134.596 213.16C134.303 212.253 134.156 211.207 134.156 210.02C134.156 208.833 134.303 207.793 134.596 206.9C134.89 205.993 135.303 205.24 135.836 204.64C136.37 204.027 137.016 203.567 137.776 203.26C138.536 202.953 139.376 202.8 140.296 202.8C141.216 202.8 142.056 202.953 142.816 203.26C143.576 203.567 144.223 204.027 144.756 204.64C145.29 205.24 145.703 205.993 145.996 206.9C146.29 207.793 146.436 208.833 146.436 210.02C146.436 211.207 146.29 212.253 145.996 213.16C145.703 214.053 145.29 214.807 144.756 215.42C144.223 216.02 143.576 216.473 142.816 216.78C142.056 217.087 141.216 217.24 140.296 217.24ZM140.296 214.54C141.216 214.54 141.93 214.24 142.436 213.64C142.956 213.04 143.216 212.18 143.216 211.06V208.98C143.216 207.86 142.956 207 142.436 206.4C141.93 205.8 141.216 205.5 140.296 205.5C139.376 205.5 138.656 205.8 138.136 206.4C137.63 207 137.376 207.86 137.376 208.98V211.06C137.376 212.18 137.63 213.04 138.136 213.64C138.656 214.24 139.376 214.54 140.296 214.54ZM164.14 207.84H164.08L163.06 209.88L160.34 214.82L157.68 209.9L156.62 207.7H156.56V217H153.7V203.04H156.92L160.34 209.58H160.38L163.76 203.04H167V217H164.14V207.84ZM170.087 217V203.04H179.587V205.74H173.127V208.6H178.667V211.28H173.127V214.3H179.587V217H170.087ZM188.055 205.74V217H185.015V205.74H181.235V203.04H191.835V205.74H188.055ZM193.915 217V203.04H203.415V205.74H196.955V208.6H202.495V211.28H196.955V214.3H203.415V217H193.915ZM209.103 217H206.063V203.04H212.683C213.323 203.04 213.903 203.147 214.423 203.36C214.943 203.573 215.383 203.88 215.743 204.28C216.117 204.667 216.403 205.133 216.603 205.68C216.803 206.227 216.903 206.833 216.903 207.5C216.903 208.447 216.69 209.273 216.263 209.98C215.85 210.687 215.217 211.2 214.363 211.52L217.103 217H213.723L211.283 211.88H209.103V217ZM212.303 209.32C212.757 209.32 213.11 209.207 213.363 208.98C213.63 208.74 213.763 208.393 213.763 207.94V207.06C213.763 206.607 213.63 206.267 213.363 206.04C213.11 205.8 212.757 205.68 212.303 205.68H209.103V209.32H212.303Z" fill="white"/>
<g clip-path="url(#clip0)">
<path d="M206 131.578H163.344V128.062C163.344 110.616 149.149 96.4219 131.703 96.4219C114.257 96.4219 100.062 110.616 100.062 128.062V131.578H86V128.062C86 112.036 92.2411 96.9684 103.574 85.636C114.906 74.3036 129.974 68.0625 146 68.0625C162.026 68.0625 177.094 74.3036 188.426 85.636C199.759 96.9684 206 112.036 206 128.062V131.578Z" fill="#FB4F03"/>
<path d="M188.426 85.636C177.094 74.3036 162.026 68.0625 146 68.0625C129.974 68.0625 114.906 74.3036 103.574 85.636C102.74 86.4683 101.939 87.3243 101.161 88.1959L114.491 101.526C119.449 98.2996 125.36 96.4219 131.703 96.4219C146.222 96.4219 158.488 106.254 162.195 119.609L205.942 125.499C205.313 110.435 199.153 96.3624 188.426 85.636Z" fill="#FCCF00"/>
<path d="M163.344 128.062V131.578H206V128.062C206 112.036 199.759 96.9684 188.426 85.636C177.094 74.3036 162.026 68.0625 146 68.0625V99.8414C156.282 105.072 163.344 115.758 163.344 128.062Z" fill="#00A259"/>
<path d="M191.044 85.6406L137.078 134.878C135.103 136.679 135.032 139.765 136.923 141.654L150.102 154.833C151.994 156.727 155.086 156.653 156.886 154.67L206 100.593V85.6406H191.044Z" fill="#9DCDE8"/>
<path d="M145.999 159.822C142.243 159.822 138.711 158.359 136.055 155.703C130.572 150.22 130.572 141.298 136.055 135.815C138.711 133.159 142.243 131.696 145.999 131.696C149.755 131.696 153.287 133.159 155.943 135.815C161.426 141.298 161.426 150.219 155.943 155.703C153.287 158.359 149.755 159.822 145.999 159.822Z" fill="#1366EA"/>
</g>
<defs>
<filter id="filter0_d" x="0" y="0" width="297" height="276" filterUnits="userSpaceOnUse" color-interpolation-filters="sRGB">
<feFlood flood-opacity="0" result="BackgroundImageFix"/>
<feColorMatrix in="SourceAlpha" type="matrix" values="0 0 0 0 0 0 0 0 0 0 0 0 0 0 0 0 0 0 127 0"/>
<feOffset dy="10"/>
<feGaussianBlur stdDeviation="15"/>
<feColorMatrix type="matrix" values="0 0 0 0 0.0666667 0 0 0 0 0.0666667 0 0 0 0 0.0666667 0 0 0 0.2 0"/>
<feBlend mode="normal" in2="BackgroundImageFix" result="effect1_dropShadow"/>
<feBlend mode="normal" in="SourceGraphic" in2="effect1_dropShadow" result="shape"/>
</filter>
<clipPath id="clip0">
<rect width="120" height="120" fill="white" transform="translate(86 54)"/>
</clipPath>
</defs>
</svg>
